<?xml version="1.0" encoding="UTF-8" standalone="no"?><!DOCTYPE svg PUBLIC "-//W3C//DTD SVG 1.1//EN" "http://www.w3.org/Graphics/SVG/1.1/DTD/svg11.dtd"><svg width="100%" height="100%" viewBox="0 0 404 88" version="1.1" xmlns="http://www.w3.org/2000/svg" xmlns:xlink="http://www.w3.org/1999/xlink" xml:space="preserve" xmlns:serif="http://www.serif.com/" style="fill-rule:evenodd;clip-rule:evenodd;stroke-linejoin:round;stroke-miterlimit:2;"><g><path d="M113.923,59.952l-108.545,-0c-1.866,-0 -3.378,1.512 -3.378,3.378l0,20.267c0,1.866 1.512,3.378 3.378,3.378l108.545,0c1.866,0 3.378,-1.512 3.378,-3.378l0,-20.267c0,-1.866 -1.512,-3.378 -3.378,-3.378Z" style="fill:#ffe1ba;fill-rule:nonzero;"/><path d="M113.923,59.952l-54.272,-0l-0,27.023l54.272,0c1.866,0 3.378,-1.512 3.378,-3.378l0,-20.267c0,-1.866 -1.512,-3.378 -3.378,-3.378Z" style="fill:#ffd391;fill-rule:nonzero;"/><path d="M113.923,39.684l-108.545,-0c-1.866,-0 -3.378,1.512 -3.378,3.378l0,22.52l115.301,-0l0,-22.52c0,-1.866 -1.512,-3.378 -3.378,-3.378Z" style="fill:#ffd391;fill-rule:nonzero;"/><path d="M115.155,39.916l-83.014,-32.502c-0.934,-0.366 -1.983,-0.297 -2.861,0.187c-8.47,4.668 -15.114,9.966 -19.746,15.746c-4.999,6.238 -7.534,12.871 -7.534,19.715l-0,3.378l115.301,-0c0,-0 -0.36,-1.156 -0.059,-2.752c0.302,-1.595 -0.575,-3.18 -2.087,-3.772Z" style="fill:#c50048;fill-rule:nonzero;"/><path d="M117.301,43.062c0,-1.866 -1.512,-3.378 -3.378,-3.378l-54.272,-0l-0,25.898l57.65,-0l0,-22.52Z" style="fill:#ffb64c;fill-rule:nonzero;"/><path d="M117.242,43.688c0.302,-1.595 -0.575,-3.18 -2.087,-3.772l-55.504,-21.731l-0,28.255l57.65,-0c0,-0 -0.36,-1.156 -0.059,-2.752Z" style="fill:#81002f;fill-rule:nonzero;"/><path d="M65.435,14.477c-0.534,0 -1.077,-0.127 -1.582,-0.395c-1.647,-0.876 -2.273,-2.921 -1.398,-4.568c4.46,-8.393 16.575,-8.489 17.088,-8.489c1.866,-0 3.378,1.512 3.378,3.378c0,1.865 -1.512,3.378 -3.378,3.378c-2.369,0.013 -9.005,0.92 -11.122,4.903c-0.607,1.142 -1.776,1.793 -2.986,1.793Z" style="fill:#80b405;fill-rule:nonzero;"/><circle cx="59.651" cy="19.416" r="13.512" style="fill:#ff415b;"/><path d="M59.651,5.904l-0,27.024c7.45,-0 13.511,-6.061 13.511,-13.512c0,-7.45 -6.061,-13.512 -13.511,-13.512Z" style="fill:#c50048;fill-rule:nonzero;"/></g><g id="Layer1"><path d="M191.198,31.197c-0.339,-3.169 -1.761,-5.637 -4.265,-7.403c-2.504,-1.767 -5.753,-2.65 -9.745,-2.65c-2.807,0 -5.214,0.424 -7.222,1.27c-2.009,0.847 -3.545,1.997 -4.61,3.448c-1.064,1.452 -1.609,3.109 -1.633,4.973c0,1.548 0.357,2.891 1.071,4.028c0.714,1.137 1.688,2.099 2.922,2.885c1.233,0.787 2.601,1.446 4.101,1.978c1.5,0.533 3.012,0.98 4.536,1.343l6.969,1.742c2.807,0.654 5.51,1.537 8.111,2.65c2.602,1.113 4.936,2.516 7.005,4.21c2.069,1.694 3.708,3.738 4.918,6.134c1.21,2.395 1.815,5.202 1.815,8.42c-0,4.355 -1.113,8.184 -3.339,11.487c-2.226,3.302 -5.438,5.879 -9.636,7.73c-4.198,1.851 -9.273,2.777 -15.226,2.777c-5.782,-0 -10.797,-0.896 -15.043,-2.686c-4.247,-1.79 -7.562,-4.404 -9.945,-7.839c-2.383,-3.436 -3.672,-7.622 -3.865,-12.558l13.247,-0c0.194,2.589 0.992,4.742 2.395,6.46c1.404,1.718 3.237,3 5.499,3.847c2.262,0.847 4.797,1.271 7.604,1.271c2.927,-0 5.498,-0.442 7.712,-1.325c2.214,-0.883 3.95,-2.117 5.208,-3.702c1.258,-1.585 1.899,-3.442 1.924,-5.571c-0.025,-1.936 -0.593,-3.539 -1.706,-4.809c-1.113,-1.27 -2.668,-2.335 -4.664,-3.194c-1.996,-0.859 -4.325,-1.627 -6.986,-2.305l-8.457,-2.177c-6.121,-1.573 -10.955,-3.962 -14.499,-7.168c-3.545,-3.206 -5.317,-7.471 -5.317,-12.794c-0,-4.379 1.191,-8.214 3.575,-11.505c2.383,-3.29 5.631,-5.849 9.745,-7.676c4.113,-1.827 8.771,-2.74 13.973,-2.74c5.274,-0 9.902,0.913 13.882,2.74c3.98,1.827 7.108,4.355 9.382,7.585c2.274,3.231 3.448,6.939 3.52,11.124l-12.956,0Z" style="fill-rule:nonzero;"/><rect x="215.405" y="10.764" width="13.138" height="74.33" style="fill-rule:nonzero;"/><path d="M239.65,85.094l-0,-55.748l13.138,0l-0,55.748l-13.138,-0Zm6.605,-63.66c-2.105,0 -3.901,-0.695 -5.389,-2.086c-1.489,-1.392 -2.233,-3.067 -2.233,-5.027c0,-1.984 0.751,-3.672 2.251,-5.063c1.5,-1.391 3.29,-2.087 5.371,-2.087c2.081,0 3.865,0.696 5.353,2.087c1.488,1.391 2.233,3.079 2.233,5.063c-0,1.96 -0.745,3.635 -2.233,5.027c-1.488,1.391 -3.272,2.086 -5.353,2.086Z" style="fill-rule:nonzero;"/><path d="M288.211,86.182c-5.565,0 -10.338,-1.221 -14.318,-3.665c-3.98,-2.444 -7.041,-5.825 -9.183,-10.144c-2.141,-4.319 -3.212,-9.298 -3.212,-14.935c0,-5.662 1.089,-10.664 3.267,-15.008c2.178,-4.343 5.256,-7.73 9.237,-10.162c3.98,-2.432 8.692,-3.647 14.136,-3.647c4.525,-0 8.535,0.828 12.031,2.486c3.497,1.657 6.285,3.992 8.366,7.004c2.081,3.013 3.267,6.527 3.557,10.544l-12.558,-0c-0.508,-2.686 -1.712,-4.93 -3.611,-6.733c-1.899,-1.802 -4.434,-2.704 -7.603,-2.704c-2.686,0 -5.045,0.72 -7.078,2.16c-2.032,1.439 -3.611,3.502 -4.736,6.188c-1.125,2.686 -1.688,5.904 -1.688,9.654c0,3.799 0.557,7.059 1.67,9.781c1.113,2.722 2.679,4.815 4.7,6.279c2.02,1.464 4.397,2.196 7.132,2.196c1.935,-0 3.671,-0.369 5.208,-1.107c1.536,-0.738 2.825,-1.809 3.865,-3.212c1.04,-1.404 1.754,-3.109 2.141,-5.118l12.558,0c-0.315,3.944 -1.476,7.435 -3.484,10.471c-2.009,3.037 -4.743,5.408 -8.203,7.114c-3.46,1.706 -7.525,2.558 -12.194,2.558Z" style="fill-rule:nonzero;"/><path d="M345.627,86.182c-5.589,0 -10.41,-1.167 -14.463,-3.502c-4.053,-2.335 -7.168,-5.65 -9.345,-9.944c-2.178,-4.295 -3.267,-9.358 -3.267,-15.189c0,-5.735 1.095,-10.773 3.285,-15.117c2.19,-4.343 5.256,-7.73 9.2,-10.162c3.944,-2.432 8.578,-3.647 13.901,-3.647c3.436,-0 6.684,0.55 9.745,1.651c3.06,1.101 5.77,2.801 8.129,5.099c2.359,2.299 4.217,5.22 5.571,8.765c1.355,3.545 2.033,7.761 2.033,12.649l-0,4.028l-45.694,0l0,-8.856l33.1,0c-0.024,-2.516 -0.569,-4.76 -1.633,-6.732c-1.065,-1.972 -2.547,-3.527 -4.446,-4.664c-1.9,-1.137 -4.107,-1.706 -6.624,-1.706c-2.686,0 -5.045,0.648 -7.077,1.942c-2.033,1.295 -3.611,2.988 -4.736,5.081c-1.126,2.093 -1.7,4.386 -1.724,6.878l-0,7.73c-0,3.243 0.592,6.019 1.778,8.33c1.186,2.311 2.843,4.077 4.972,5.299c2.13,1.222 4.622,1.833 7.477,1.833c1.911,-0 3.641,-0.273 5.19,-0.817c1.548,-0.544 2.891,-1.349 4.028,-2.414c1.138,-1.064 1.997,-2.383 2.577,-3.956l12.268,1.38c-0.775,3.242 -2.245,6.067 -4.41,8.474c-2.166,2.408 -4.93,4.271 -8.293,5.589c-3.363,1.319 -7.211,1.978 -11.542,1.978Z" style="fill-rule:nonzero;"/></g></svg>